<?xml version="1.0" standalone="no"?>
<!DOCTYPE svg PUBLIC "-//W3C//DTD SVG 20010904//EN"
 "http://www.w3.org/TR/2001/REC-SVG-20010904/DTD/svg10.dtd">
<svg version="1.0" xmlns="http://www.w3.org/2000/svg"
 width="512.000000pt" height="600.000000pt" viewBox="0 0 512.000000 600.000000"
 preserveAspectRatio="xMidYMid meet">
<metadata>
Created by potrace 1.15, written by Peter Selinger 2001-2017
</metadata>
<g transform="translate(0.000000,600.000000) scale(0.100000,-0.100000)"
fill="#000000" stroke="none">
<path d="M2810 2793 c-18 -7 -30 -24 -24 -34 7 -11 5 -2505 -2 -2523 -3 -9
-11 -13 -17 -9 -6 3 -7 1 -3 -6 4 -6 12 -8 18 -5 6 4 8 1 6 -7 -3 -8 -10 -13
-16 -12 -6 2 -9 -4 -5 -13 4 -12 8 -13 13 -3 6 8 10 4 13 -12 2 -13 5 549 6
1249 1 839 4 1272 11 1273 6 1 16 2 23 3 20 3 35 -14 33 -38 -2 -12 2 -23 8
-23 6 0 21 -3 34 -7 18 -6 22 -4 22 13 0 12 5 21 11 21 5 0 7 -4 4 -10 -4 -6
1 -7 12 -4 13 4 11 0 -6 -14 -14 -11 -26 -28 -27 -39 -3 -15 4 -19 31 -21 41
-3 43 3 13 29 -13 11 -18 19 -13 18 48 -6 37 24 -21 61 -24 15 -41 30 -38 33
3 3 1 14 -5 24 -10 16 -10 16 -8 -6 1 -13 -4 -26 -11 -29 -9 -3 -13 3 -12 19
3 39 0 55 -8 43 -9 -14 -45 -27 -37 -14 3 6 1 10 -4 10 -6 0 -11 5 -11 11 0 5
5 7 10 4 6 -3 10 -1 10 5 0 6 5 8 12 4 7 -4 8 -3 4 4 -4 7 -8 12 -9 11 -1 0
-9 -3 -17 -6z"/>
<path d="M2336 2743 c-3 -4 -5 -565 -4 -1247 l3 -1241 5 1245 5 1245 3 -1243
c1 -826 5 -1241 12 -1237 7 4 10 428 10 1240 0 1048 -2 1234 -14 1238 -8 3
-17 3 -20 0z"/>
<path d="M3117 2477 c3 -5 -2 -16 -12 -23 -10 -8 -17 -15 -14 -16 2 -2 12 -8
23 -13 10 -6 18 -14 17 -18 -2 -11 23 -36 31 -31 8 5 48 -49 48 -65 0 -6 8 -8
18 -5 16 5 16 5 -1 -6 -24 -15 -11 -33 19 -26 24 6 27 3 27 -37 0 -11 11 -20
31 -25 23 -7 30 -14 29 -29 -2 -16 4 -20 27 -20 18 0 27 4 23 11 -4 6 1 5 10
-3 9 -7 17 -10 18 -5 0 5 2 17 4 27 2 9 -1 17 -6 17 -5 0 -9 5 -9 11 0 6 -7
17 -15 25 -18 18 -20 4 -2 -16 10 -12 9 -12 -4 -2 -9 6 -18 10 -21 7 -2 -3 -4
5 -4 18 1 14 -4 21 -13 19 -8 -2 -18 3 -22 10 -4 7 -11 9 -15 5 -4 -3 -2 -13
5 -21 9 -11 8 -15 -4 -20 -9 -3 -13 -2 -10 4 3 6 2 10 -3 10 -6 0 -9 8 -8 18
1 11 -5 16 -19 15 -18 -2 -18 -1 3 9 28 14 29 28 1 28 -13 0 -18 4 -13 12 5 7
3 8 -5 4 -16 -11 -43 25 -30 40 6 7 3 16 -8 25 -16 13 -17 12 -4 -3 12 -16 10
-18 -23 -18 -27 0 -36 4 -36 16 0 13 3 14 14 5 9 -8 16 -8 20 -2 4 5 -2 14
-11 20 -14 8 -15 13 -6 19 9 5 2 13 -22 24 -19 8 -32 11 -28 5z"/>
</g>
</svg>
